<svg xmlns="http://www.w3.org/2000/svg" style="display:none">
  
  <symbol id="google" viewBox="0 0 32 32">
    <path fill="#4285f4" d="M30.001 16.31c0-1.15-.095-1.99-.301-2.861H16.287v5.195h7.873c-.159 1.291-1.016 3.236-2.92 4.542l-.027.174 4.24 3.22.294.029c2.699-2.443 4.254-6.036 4.254-10.298"/>
    <path fill="#34a853" d="M16.286 30c3.857 0 7.095-1.245 9.46-3.391l-4.507-3.423c-1.207.825-2.826 1.4-4.953 1.4A8.58 8.58 0 0 1 8.16 18.77l-.167.014-4.41 3.344-.058.157C5.874 26.857 10.7 30 16.286 30"/>
    <path fill="#fbbc05" d="M8.16 18.769A8.5 8.5 0 0 1 7.684 16c0-.964.174-1.898.46-2.769l-.008-.185L3.67 9.647l-.146.069A13.8 13.8 0 0 0 2 16c0 2.256.556 4.387 1.524 6.285z"/>
    <path fill="#eb4335" d="M16.286 7.413c2.683 0 4.492 1.136 5.524 2.085l4.032-3.858C23.366 3.384 20.144 2 16.286 2 10.7 2 5.874 5.142 3.524 9.715l4.62 3.516c1.158-3.375 4.365-5.818 8.142-5.818"/>
  </symbol>

  <symbol id="linkedin" viewBox="0 0 512 512">
    <rect width="512" height="512" fill="#0077b5" rx="15%"/>
    <circle cx="142" cy="138" r="37" fill="#fff"/>
    <path stroke="#fff" stroke-width="66" d="M244 194v198M142 194v198"/>
    <path fill="#fff" d="M276 282c0-20 13-40 36-40 24 0 33 18 33 45v105h66V279c0-61-32-89-76-89-34 0-51 19-59 32"/>
  </symbol>

</svg>